<svg class="waveform_container_2K9Om" viewBox="0 0 600 160"><g transform="scale(1, -1) translate(0, -80)"><path style="fill: hsl(300, 54%, 72%);
    stroke: hsla(300, 48%, 50%, 1);" d="M0 0Q0 3.4588381278124403 1.7543859649122806 16.78571703632768 Q3.508771929824561 30.11259594484292 5.263157894736842 40.68163987803889 Q7.017543859649122 51.25068381123485 8.771929824561402 57.304394286754885 Q10.526315789473683 63.35810476227493 12.280701754385964 56.38416730767156 Q14.035087719298245 49.41022985306819 15.789473684210524 50.727195813802254 Q17.543859649122805 52.04416177453632 19.298245614035086 48.20294402374701 Q21.052631578947366 44.361726272957696 22.807017543859647 49.5752146421135 Q24.561403508771928 54.788703011269305 26.31578947368421 54.197929957101145 Q28.07017543859649 53.607156902932985 29.82456140350877 46.047712045068465 Q31.57894736842105 38.48826718720395 33.33333333333333 36.36601067912645 Q35.08771929824561 34.243754171048934 36.84210526315789 32.079686367269375 Q38.59649122807017 29.915618563489815 40.35087719298245 29.254269853053884 Q42.10526315789473 28.59292114261795 43.859649122807014 27.070575716200075 Q45.614035087719294 25.548230289782197 47.368421052631575 26.715538389406362 Q49.122807017543856 27.88284648903053 50.87719298245614 26.97582524304688 Q52.63157894736842 26.06880399706323 54.3859649122807 27.311545396884554 Q56.14035087719298 28.55428679670588 57.89473684210526 29.682464292910552 Q59.64912280701754 30.810641789115223 61.40350877192982 32.21527204849157 Q63.1578947368421 33.61990230786792 64.91228070175438 33.45185272414828 Q66.66666666666666 33.283803140428645 68.42105263157893 27.99011294243691 Q70.17543859649122 22.696422744445176 71.9298245614035 23.676344585392506 Q73.68421052631578 24.65626642633984 75.43859649122805 26.992408574376714 Q77.19298245614034 29.32855072241359 78.94736842105263 26.73369624436637 Q80.7017543859649 24.138841766319153 82.45614035087718 24.239807730517597 Q84.21052631578947 24.34077369471604 85.96491228070175 25.112911809047624 Q87.71929824561403 25.88504992337921 89.4736842105263 27.410082556378896 Q91.22807017543859 28.93511518937858 92.98245614035088 30.026725212161534 Q94.73684210526315 31.11833523494449 96.49122807017542 30.586645089808595 Q98.24561403508771 30.0549549446727 100 31.203604093478404 Q101.75438596491227 32.35225324228411 103.50877192982455 31.90527388517799 Q105.26315789473684 31.458294528071875 107.01754385964912 30.273816296856225 Q108.7719298245614 29.089338065640575 110.52631578947367 29.066486224314943 Q112.28070175438596 29.04363438298931 114.03508771929825 29.568293635559943 Q115.78947368421052 30.092952888130576 117.5438596491228 28.436043389695573 Q119.29824561403508 26.77913389126057 121.05263157894737 27.06845508170535 Q122.80701754385964 27.357776272150126 124.56140350877192 26.05963033964601 Q126.3157894736842 24.761484407141893 128.0701754385965 22.044373410798016 Q129.82456140350877 19.327262414454143 131.57894736842104 18.00244287148341 Q133.33333333333331 16.67762332851268 135.0877192982456 14.86599488291077 Q136.8421052631579 13.054366437308861 138.59649122807016 14.395067386431545 Q140.35087719298244 15.735768335554232 142.10526315789474 16.037005623522276 Q143.859649122807 16.338242911490322 145.6140350877193 16.353347283914612 Q147.36842105263156 16.3684516563389 149.12280701754383 18.776185944681856 Q150.87719298245614 21.183920233024814 152.6315789473684 21.573933015014234 Q154.38596491228068 21.963945797003657 156.140350877193 22.3318630127033 Q157.89473684210526 22.699780228402947 159.64912280701753 21.57849010353873 Q161.4035087719298 20.457199978674513 163.15789473684208 20.18725939257732 Q164.91228070175438 19.91731880648013 166.66666666666666 18.06650989133656 Q168.42105263157893 16.215700976192984 170.17543859649123 17.30919929215709 Q171.9298245614035 18.402697608121198 173.68421052631578 18.554549123949062 Q175.43859649122805 18.706400639776927 177.19298245614033 18.13924125816174 Q178.94736842105263 17.57208187654655 180.7017543859649 15.836268524940415 Q182.45614035087718 14.100455173334279 184.21052631578948 13.790317634915013 Q185.96491228070175 13.480180096495749 187.71929824561403 12.684539581275633 Q189.4736842105263 11.888899066055515 191.22807017543857 13.685177247873048 Q192.98245614035088 15.48145542969058 194.73684210526315 16.133455956566102 Q196.49122807017542 16.785456483441628 198.24561403508773 15.88746626341976 Q200 14.989476043397891 201.75438596491227 14.83800147501453 Q203.50877192982455 14.686526906631167 205.26315789473682 12.681540899990132 Q207.01754385964912 10.676554893349099 208.7719298245614 11.707916585744249 Q210.52631578947367 12.739278278139398 212.28070175438597 12.525636239273108 Q214.03508771929825 12.311994200406819 215.78947368421052 11.692922482893575 Q217.5438596491228 11.073850765380332 219.29824561403507 9.13728846579437 Q221.05263157894737 7.200726166208408 222.80701754385964 7.9895068855240865 Q224.56140350877192 8.778287604839765 226.3157894736842 9.565066379313107 Q228.07017543859646 10.35184515378645 229.82456140350877 8.94538299532586 Q231.57894736842104 7.53892083686527 233.33333333333331 8.239926788098852 Q235.0877192982456 8.940932739332437 236.84210526315786 8.694542360077698 Q238.59649122807016 8.44815198082296 240.35087719298244 9.37243310078048 Q242.1052631578947 10.296714220738002 243.859649122807 10.60719948202928 Q245.6140350877193 10.91768474332056 247.36842105263156 10.406003330870924 Q249.12280701754383 9.894321918421289 250.8771929824561 10.95030574484056 Q252.6315789473684 12.00628957125983 254.3859649122807 12.187959437593427 Q256.140350877193 12.369629303927027 257.89473684210526 11.480233881023324 Q259.64912280701753 10.59083845811962 261.4035087719298 9.973348092637066 Q263.1578947368421 9.355857727154511 264.91228070175436 9.186579632778137 Q266.66666666666663 9.017301538401762 268.42105263157896 9.14267514528796 Q270.17543859649123 9.268048752174158 271.9298245614035 9.17183581120344 Q273.6842105263158 9.075622870232722 275.43859649122805 9.0517809038231 Q277.1929824561403 9.027938937413477 278.9473684210526 8.017378457018808 Q280.7017543859649 7.006817976624139 282.45614035087715 7.296133418293554 Q284.2105263157895 7.585448859962968 285.96491228070175 8.205843835740964 Q287.719298245614 8.826238811518962 289.4736842105263 8.051511850374965 Q291.2280701754386 7.276784889230969 292.98245614035085 6.878570107429378 Q294.7368421052631 6.480355325627787 296.49122807017545 5.78909025504394 Q298.2456140350877 5.097825184460092 300 6.282341294087262 Q301.7543859649123 7.466857403714431 303.50877192982455 6.924218806155455 Q305.2631578947369 6.381580208596478 307.0175438596491 6.471426053335648 Q308.77192982456137 6.561271898074819 310.52631578947364 6.846465026850688 Q312.280701754386 7.131658155626558 314.03508771929825 7.105662394110235 Q315.7894736842105 7.079666632593913 317.54385964912285 6.405866875431137 Q319.2982456140351 5.73206711826836 321.0526315789474 5.2009781916160875 Q322.8070175438596 4.669889264963814 324.56140350877195 5.640600729364186 Q326.3157894736842 6.611312193764557 328.0701754385965 17.67789605527036 Q329.82456140350877 28.744479916776164 331.57894736842104 40.46851112362813 Q333.33333333333337 52.19254233048011 335.0877192982456 57.07249098490875 Q336.84210526315786 61.952439639337385 338.59649122807014 55.10899774967021 Q340.35087719298247 48.26555586000304 342.10526315789474 51.106305143531266 Q343.859649122807 53.94705442705949 345.61403508771934 48.96580764652223 Q347.3684210526316 43.98456086598497 349.1228070175439 49.17348088952586 Q350.8771929824561 54.36240091306675 352.63157894736844 53.37145598309162 Q354.3859649122807 52.380511053116486 356.140350877193 47.75198094346783 Q357.89473684210526 43.12345083381918 359.64912280701753 40.23627822103965 Q361.40350877192986 37.34910560826012 363.1578947368421 34.76471616817358 Q364.91228070175436 32.18032672808703 366.66666666666663 34.06200261097041 Q368.42105263157896 35.943678493853795 370.17543859649123 32.6288372135841 Q371.9298245614035 29.313995933314402 373.6842105263158 29.306628160332142 Q375.43859649122805 29.299260387349882 377.1929824561403 29.50446939904077 Q378.9473684210526 29.709678410731655 380.70175438596493 30.130173732855415 Q382.4561403508772 30.550669054979174 384.2105263157895 30.87132472974749 Q385.96491228070175 31.191980404515803 387.719298245614 33.123211538826105 Q389.4736842105263 35.05444267313641 391.2280701754386 35.227352323228274 Q392.98245614035085 35.40026197332015 394.7368421052631 28.964046032684028 Q396.49122807017545 22.527830092047907 398.2456140350877 23.50578897038561 Q400 24.483747848723315 401.7543859649123 26.022008554302268 Q403.50877192982455 27.560269259881217 405.2631578947368 25.821364287550068 Q407.0175438596491 24.082459315218916 408.7719298245614 24.87514972116454 Q410.5263157894737 25.66784012711016 412.280701754386 23.7277336793531 Q414.03508771929825 21.787627231596037 415.7894736842105 25.281620577635778 Q417.5438596491228 28.775613923675518 419.29824561403507 29.38918975217441 Q421.05263157894734 30.002765580673298 422.8070175438596 30.69514063510462 Q424.56140350877195 31.387515689535945 426.3157894736842 32.638794019214316 Q428.0701754385965 33.890072348892694 429.82456140350877 34.75328917783179 Q431.57894736842104 35.61650600677088 433.3333333333333 33.76304781244248 Q435.0877192982456 31.909589618114076 436.8421052631579 30.45527412069321 Q438.5964912280702 29.000958623272346 440.35087719298247 30.123004354759054 Q442.10526315789474 31.24505008624576 443.859649122807 29.692319685998847 Q445.6140350877193 28.139589285751928 447.36842105263156 28.89246308094664 Q449.12280701754383 29.645336876141357 450.8771929824561 28.236596119490237 Q452.63157894736844 26.82785536283912 454.38596491228066 23.98172373206905 Q456.14035087719293 21.135592101298982 457.8947368421052 18.14301479617645 Q459.64912280701753 15.150437491053914 461.4035087719298 16.364310695972264 Q463.1578947368421 17.578183900890615 464.9122807017544 16.72187525287446 Q466.6666666666667 15.86556660485831 468.42105263157896 15.953852247605912 Q470.1754385964912 16.042137890353512 471.9298245614035 16.805365600814284 Q473.6842105263158 17.568593311275055 475.43859649122805 17.987655942853273 Q477.1929824561403 18.406718574431487 478.9473684210526 18.845603093581563 Q480.70175438596493 19.28448761273164 482.45614035087715 19.223820987523858 Q484.2105263157894 19.163154362316078 485.9649122807017 18.986596450153023 Q487.719298245614 18.81003853798997 489.4736842105263 18.201455454542533 Q491.2280701754386 17.59287237109509 492.9824561403509 16.364535024874804 Q494.7368421052632 15.136197678654517 496.49122807017545 14.876110469570506 Q498.24561403508767 14.616023260486493 500 14.768024914947587 Q501.7543859649123 14.92002656940868 503.50877192982455 14.517317090592163 Q505.2631578947368 14.114607611775646 507.0175438596491 12.10295305549565 Q508.7719298245614 10.091298499215654 510.5263157894737 9.884959192086864 Q512.280701754386 9.678619884958076 514.0350877192982 9.262221864679399 Q515.7894736842105 8.845823844400721 517.5438596491229 9.746051241204105 Q519.2982456140351 10.64627863800749 521.0526315789473 11.207118178558364 Q522.8070175438596 11.767957719109237 524.561403508772 11.213917610298774 Q526.3157894736842 10.65987750148831 528.0701754385965 10.445544337696447 Q529.8245614035088 10.231211173904583 531.578947368421 9.491043068073191 Q533.3333333333333 8.750874962241799 535.0877192982456 8.774539684839798 Q536.8421052631579 8.7982044074378 538.5964912280701 7.858666461624454 Q540.3508771929825 6.919128515811107 542.1052631578948 7.2272704118928 Q543.859649122807 7.535412307974491 545.6140350877192 6.73916080512684 Q547.3684210526316 5.942909302279189 549.1228070175439 5.416307251133123 Q550.8771929824561 4.889705199987058 552.6315789473683 5.342985470775016 Q554.3859649122807 5.796265741562974 556.140350877193 5.5359609845350946 Q557.8947368421053 5.275656227507216 559.6491228070175 4.989176149445267 Q561.4035087719298 4.702696071383318 563.1578947368421 4.2495586013816835 Q564.9122807017544 3.7964211313800487 566.6666666666667 4.315849270108902 Q568.421052631579 4.835277408837756 570.1754385964912 4.752860806917282 Q571.9298245614035 4.670444204996809 573.6842105263158 4.473255227275841 Q575.438596491228 4.276066249554874 577.1929824561403 4.433085884186257 Q578.9473684210526 4.59010551881764 580.7017543859649 4.613055589343544 Q582.4561403508771 4.636005659869447 584.2105263157895 4.106055878492422 Q585.9649122807018 3.5761060971153977 587.719298245614 3.267884813407284 Q589.4736842105262 2.9596635296991707 591.2280701754386 2.5750651035629053 Q592.9824561403509 2.1904666774266395 594.7368421052631 1.8737911560323086 Q596.4912280701755 1.557115634637978 598.2456140350878 1.3558068736767366 Q600 1.1544981127154954 600 0 Q600 -1.1544981127154954 598.2456140350878 -1.3558068736767366 Q596.4912280701755 -1.557115634637978 594.7368421052631 -1.8737911560323086 Q592.9824561403509 -2.1904666774266395 591.2280701754386 -2.5750651035629053 Q589.4736842105262 -2.9596635296991707 587.719298245614 -3.267884813407284 Q585.9649122807018 -3.5761060971153977 584.2105263157896 -4.106055878492422 Q582.4561403508773 -4.636005659869447 580.7017543859649 -4.613055589343544 Q578.9473684210526 -4.59010551881764 577.1929824561403 -4.433085884186257 Q575.438596491228 -4.276066249554874 573.6842105263158 -4.473255227275841 Q571.9298245614035 -4.670444204996809 570.1754385964912 -4.752860806917282 Q568.421052631579 -4.835277408837756 566.6666666666667 -4.315849270108902 Q564.9122807017544 -3.7964211313800487 563.1578947368421 -4.2495586013816835 Q561.4035087719298 -4.702696071383318 559.6491228070175 -4.989176149445267 Q557.8947368421053 -5.275656227507216 556.140350877193 -5.5359609845350946 Q554.3859649122808 -5.796265741562974 552.6315789473684 -5.342985470775016 Q550.8771929824561 -4.889705199987058 549.1228070175439 -5.416307251133123 Q547.3684210526316 -5.942909302279189 545.6140350877192 -6.73916080512684 Q543.859649122807 -7.535412307974491 542.1052631578948 -7.2272704118928 Q540.3508771929825 -6.919128515811107 538.5964912280701 -7.858666461624454 Q536.8421052631579 -8.7982044074378 535.0877192982456 -8.774539684839798 Q533.3333333333333 -8.750874962241799 531.578947368421 -9.491043068073191 Q529.8245614035088 -10.231211173904583 528.0701754385966 -10.445544337696447 Q526.3157894736843 -10.65987750148831 524.561403508772 -11.213917610298774 Q522.8070175438596 -11.767957719109237 521.0526315789473 -11.207118178558364 Q519.2982456140351 -10.64627863800749 517.5438596491229 -9.746051241204105 Q515.7894736842105 -8.845823844400721 514.0350877192982 -9.262221864679399 Q512.280701754386 -9.678619884958076 510.5263157894737 -9.884959192086864 Q508.7719298245614 -10.091298499215654 507.0175438596491 -12.10295305549565 Q505.2631578947368 -14.114607611775646 503.50877192982455 -14.517317090592163 Q501.7543859649123 -14.92002656940868 500 -14.768024914947587 Q498.2456140350878 -14.616023260486493 496.49122807017545 -14.876110469570506 Q494.7368421052632 -15.136197678654517 492.9824561403509 -16.364535024874804 Q491.2280701754386 -17.59287237109509 489.4736842105263 -18.201455454542533 Q487.719298245614 -18.81003853798997 485.9649122807018 -18.986596450153023 Q484.21052631578954 -19.163154362316078 482.45614035087726 -19.223820987523858 Q480.70175438596493 -19.28448761273164 478.9473684210526 -18.845603093581563 Q477.1929824561403 -18.406718574431487 475.43859649122805 -17.987655942853273 Q473.6842105263158 -17.568593311275055 471.9298245614035 -16.805365600814284 Q470.1754385964913 -16.042137890353512 468.42105263157896 -15.953852247605912 Q466.6666666666667 -15.86556660485831 464.9122807017544 -16.72187525287446 Q463.1578947368421 -17.578183900890615 461.4035087719298 -16.364310695972264 Q459.64912280701753 -15.150437491053914 457.8947368421053 -18.14301479617645 Q456.14035087719304 -21.135592101298982 454.38596491228077 -23.98172373206905 Q452.63157894736844 -26.82785536283912 450.8771929824561 -28.236596119490237 Q449.12280701754383 -29.645336876141357 447.36842105263156 -28.89246308094664 Q445.6140350877193 -28.139589285751928 443.859649122807 -29.692319685998847 Q442.1052631578948 -31.24505008624576 440.35087719298247 -30.123004354759054 Q438.5964912280702 -29.000958623272346 436.8421052631579 -30.45527412069321 Q435.0877192982456 -31.909589618114076 433.3333333333333 -33.76304781244248 Q431.57894736842104 -35.61650600677088 429.8245614035088 -34.75328917783179 Q428.07017543859655 -33.890072348892694 426.3157894736843 -32.638794019214316 Q424.56140350877195 -31.387515689535945 422.8070175438596 -30.69514063510462 Q421.05263157894734 -30.002765580673298 419.29824561403507 -29.38918975217441 Q417.5438596491228 -28.775613923675518 415.7894736842105 -25.281620577635778 Q414.0350877192983 -21.787627231596037 412.280701754386 -23.7277336793531 Q410.5263157894737 -25.66784012711016 408.7719298245614 -24.87514972116454 Q407.0175438596491 -24.082459315218916 405.2631578947368 -25.821364287550068 Q403.50877192982455 -27.560269259881217 401.75438596491233 -26.022008554302268 Q400.00000000000006 -24.483747848723315 398.2456140350878 -23.50578897038561 Q396.49122807017545 -22.527830092047907 394.7368421052631 -28.964046032684028 Q392.98245614035085 -35.40026197332015 391.2280701754386 -35.227352323228274 Q389.4736842105263 -35.05444267313641 387.719298245614 -33.123211538826105 Q385.9649122807018 -31.191980404515803 384.2105263157895 -30.87132472974749 Q382.4561403508772 -30.550669054979174 380.70175438596493 -30.130173732855415 Q378.9473684210526 -29.709678410731655 377.1929824561403 -29.50446939904077 Q375.43859649122805 -29.299260387349882 373.68421052631584 -29.306628160332142 Q371.92982456140356 -29.313995933314402 370.1754385964913 -32.6288372135841 Q368.42105263157896 -35.943678493853795 366.66666666666663 -34.06200261097041 Q364.91228070175436 -32.18032672808703 363.1578947368421 -34.76471616817358 Q361.40350877192986 -37.34910560826012 359.6491228070176 -40.23627822103965 Q357.8947368421053 -43.12345083381918 356.140350877193 -47.75198094346783 Q354.3859649122807 -52.380511053116486 352.63157894736844 -53.37145598309162 Q350.8771929824561 -54.36240091306675 349.1228070175439 -49.17348088952586 Q347.3684210526316 -43.98456086598497 345.61403508771934 -48.96580764652223 Q343.85964912280707 -53.94705442705949 342.1052631578948 -51.106305143531266 Q340.35087719298247 -48.26555586000304 338.59649122807014 -55.10899774967021 Q336.84210526315786 -61.952439639337385 335.0877192982456 -57.07249098490875 Q333.33333333333337 -52.19254233048011 331.5789473684211 -40.46851112362813 Q329.8245614035088 -28.744479916776164 328.0701754385965 -17.67789605527036 Q326.3157894736842 -6.611312193764557 324.56140350877195 -5.640600729364186 Q322.8070175438596 -4.669889264963814 321.0526315789474 -5.2009781916160875 Q319.2982456140351 -5.73206711826836 317.54385964912285 -6.405866875431137 Q315.7894736842106 -7.079666632593913 314.0350877192983 -7.105662394110235 Q312.280701754386 -7.131658155626558 310.52631578947364 -6.846465026850688 Q308.77192982456137 -6.561271898074819 307.0175438596491 -6.471426053335648 Q305.2631578947369 -6.381580208596478 303.5087719298246 -6.924218806155455 Q301.75438596491233 -7.466857403714431 300 -6.282341294087262 Q298.2456140350877 -5.097825184460092 296.49122807017545 -5.78909025504394 Q294.7368421052631 -6.480355325627787 292.9824561403509 -6.878570107429378 Q291.22807017543863 -7.276784889230969 289.47368421052636 -8.051511850374965 Q287.719298245614 -8.826238811518962 285.96491228070175 -8.205843835740964 Q284.2105263157895 -7.585448859962968 282.45614035087715 -7.296133418293554 Q280.7017543859649 -7.006817976624139 278.9473684210526 -8.017378457018808 Q277.1929824561404 -9.027938937413477 275.43859649122805 -9.0517809038231 Q273.6842105263158 -9.075622870232722 271.9298245614035 -9.17183581120344 Q270.17543859649123 -9.268048752174158 268.42105263157896 -9.14267514528796 Q266.66666666666663 -9.017301538401762 264.9122807017544 -9.186579632778137 Q263.15789473684214 -9.355857727154511 261.40350877192986 -9.973348092637066 Q259.64912280701753 -10.59083845811962 257.89473684210526 -11.480233881023324 Q256.140350877193 -12.369629303927027 254.3859649122807 -12.187959437593427 Q252.6315789473684 -12.00628957125983 250.87719298245617 -10.95030574484056 Q249.1228070175439 -9.894321918421289 247.3684210526316 -10.406003330870924 Q245.6140350877193 -10.91768474332056 243.859649122807 -10.60719948202928 Q242.10526315789477 -10.296714220738002 240.35087719298247 -9.37243310078048 Q238.59649122807016 -8.44815198082296 236.84210526315792 -8.694542360077698 Q235.08771929824564 -8.940932739332437 233.33333333333334 -8.239926788098852 Q231.57894736842104 -7.53892083686527 229.82456140350877 -8.94538299532586 Q228.07017543859652 -10.35184515378645 226.31578947368422 -9.565066379313107 Q224.56140350877192 -8.778287604839765 222.80701754385967 -7.9895068855240865 Q221.0526315789474 -7.200726166208408 219.2982456140351 -9.13728846579437 Q217.5438596491228 -11.073850765380332 215.78947368421052 -11.692922482893575 Q214.03508771929828 -12.311994200406819 212.28070175438597 -12.525636239273108 Q210.52631578947367 -12.739278278139398 208.77192982456143 -11.707916585744249 Q207.01754385964915 -10.676554893349099 205.26315789473685 -12.681540899990132 Q203.50877192982455 -14.686526906631167 201.75438596491227 -14.83800147501453 Q200.00000000000003 -14.989476043397891 198.24561403508773 -15.88746626341976 Q196.49122807017542 -16.785456483441628 194.73684210526318 -16.133455956566102 Q192.9824561403509 -15.48145542969058 191.2280701754386 -13.685177247873048 Q189.4736842105263 -11.888899066055515 187.71929824561403 -12.684539581275633 Q185.96491228070178 -13.480180096495749 184.21052631578948 -13.790317634915013 Q182.45614035087718 -14.100455173334279 180.70175438596493 -15.836268524940415 Q178.94736842105266 -17.57208187654655 177.19298245614036 -18.13924125816174 Q175.43859649122805 -18.706400639776927 173.68421052631578 -18.554549123949062 Q171.92982456140354 -18.402697608121198 170.17543859649123 -17.30919929215709 Q168.42105263157893 -16.215700976192984 166.66666666666669 -18.06650989133656 Q164.9122807017544 -19.91731880648013 163.1578947368421 -20.18725939257732 Q161.4035087719298 -20.457199978674513 159.64912280701753 -21.57849010353873 Q157.8947368421053 -22.699780228402947 156.140350877193 -22.3318630127033 Q154.38596491228068 -21.963945797003657 152.63157894736844 -21.573933015014234 Q150.87719298245617 -21.183920233024814 149.12280701754386 -18.776185944681856 Q147.36842105263156 -16.3684516563389 145.6140350877193 -16.353347283914612 Q143.85964912280704 -16.338242911490322 142.10526315789474 -16.037005623522276 Q140.35087719298244 -15.735768335554232 138.5964912280702 -14.395067386431545 Q136.84210526315792 -13.054366437308861 135.08771929824562 -14.86599488291077 Q133.33333333333331 -16.67762332851268 131.57894736842104 -18.00244287148341 Q129.8245614035088 -19.327262414454143 128.0701754385965 -22.044373410798016 Q126.3157894736842 -24.761484407141893 124.56140350877195 -26.05963033964601 Q122.80701754385967 -27.357776272150126 121.05263157894737 -27.06845508170535 Q119.29824561403508 -26.77913389126057 117.54385964912282 -28.436043389695573 Q115.78947368421055 -30.092952888130576 114.03508771929825 -29.568293635559943 Q112.28070175438596 -29.04363438298931 110.5263157894737 -29.066486224314943 Q108.77192982456143 -29.089338065640575 107.01754385964912 -30.273816296856225 Q105.26315789473684 -31.458294528071875 103.50877192982458 -31.90527388517799 Q101.7543859649123 -32.35225324228411 100 -31.203604093478404 Q98.24561403508771 -30.0549549446727 96.49122807017545 -30.586645089808595 Q94.73684210526318 -31.11833523494449 92.98245614035088 -30.026725212161534 Q91.22807017543859 -28.93511518937858 89.47368421052633 -27.410082556378896 Q87.71929824561407 -25.88504992337921 85.96491228070177 -25.112911809047624 Q84.21052631578947 -24.34077369471604 82.4561403508772 -24.239807730517597 Q80.70175438596495 -24.138841766319153 78.94736842105264 -26.73369624436637 Q77.19298245614034 -29.32855072241359 75.43859649122808 -26.992408574376714 Q73.68421052631582 -24.65626642633984 71.92982456140352 -23.676344585392506 Q70.17543859649122 -22.696422744445176 68.42105263157896 -27.99011294243691 Q66.6666666666667 -33.283803140428645 64.9122807017544 -33.45185272414828 Q63.1578947368421 -33.61990230786792 61.403508771929836 -32.21527204849157 Q59.64912280701758 -30.810641789115223 57.894736842105274 -29.682464292910552 Q56.14035087719298 -28.55428679670588 54.38596491228071 -27.311545396884554 Q52.63157894736845 -26.06880399706323 50.87719298245615 -26.97582524304688 Q49.122807017543856 -27.88284648903053 47.36842105263159 -26.715538389406362 Q45.61403508771933 -25.548230289782197 43.85964912280703 -27.070575716200075 Q42.10526315789473 -28.59292114261795 40.350877192982466 -29.254269853053884 Q38.59649122807021 -29.915618563489815 36.842105263157904 -32.079686367269375 Q35.08771929824561 -34.243754171048934 33.33333333333334 -36.36601067912645 Q31.578947368421083 -38.48826718720395 29.82456140350879 -46.047712045068465 Q28.07017543859649 -53.607156902932985 26.315789473684227 -54.197929957101145 Q24.56140350877196 -54.788703011269305 22.807017543859665 -49.5752146421135 Q21.052631578947366 -44.361726272957696 19.298245614035103 -48.20294402374701 Q17.54385964912284 -52.04416177453632 15.789473684210542 -50.727195813802254 Q14.035087719298245 -49.41022985306819 12.28070175438598 -56.38416730767156 Q10.526315789473717 -63.35810476227493 8.77192982456142 -57.304394286754885 Q7.017543859649122 -51.25068381123485 5.2631578947368585 -40.68163987803889 Q3.5087719298245945 -30.11259594484292 1.7543859649122973 -16.78571703632768 Q0 -3.4588381278124403 0 0Z" stroke-linejoin="round" stroke-width="1"></path></g></svg>